<svg width="40" height="40" viewBox="0 0 40 40" fill="none" xmlns="http://www.w3.org/2000/svg">
<g clip-path="url(#clip0_517_485)">
<path d="M20.5 8.5C17.5 10.5 14.5 11.5 11.5 10.5V21.5C11.5 25.5 17.5 28.5 20.5 31.5C23.5 28.5 29.5 25.5 29.5 21.5V10.5C26.5 11.5 23.5 10.5 20.5 8.5Z" stroke="#00D0DD" stroke-linecap="round" stroke-linejoin="round"/>
<path d="M19.75 23.15C22.0752 23.15 23.96 21.2651 23.96 18.94C23.96 16.6149 22.0752 14.73 19.75 14.73C17.4249 14.73 15.54 16.6149 15.54 18.94C15.54 21.2651 17.4249 23.15 19.75 23.15Z" stroke="#00D0DD" stroke-linecap="round" stroke-linejoin="round"/>
<path d="M24.5 24.24L22.5 22.24" stroke="#00D0DD" stroke-linecap="round" stroke-linejoin="round"/>
</g>
<defs>
<clipPath id="clip0_517_485">
<rect width="19" height="24" fill="white" transform="translate(11 8)"/>
</clipPath>
</defs>
</svg>
