<svg width="40" height="40" viewBox="0 0 40 40" fill="none" xmlns="http://www.w3.org/2000/svg">
<path d="M10 30H30C30.55 30 31 29.55 31 29V18C31 16.9 30.1 16 29 16H14M10 30C11.1 30 12 29.1 12 28V18M10 30C8.9 30 8 29.1 8 28V10C8 9.45 8.45 9 9 9H13.18C13.6 9 13.97 9.26 14.12 9.65L14.76 11.35C14.91 11.74 15.28 12 15.7 12H27.01C28.11 12 29.01 12.9 29.01 14V16H14M14 16C12.9 16 12 16.9 12 18M14 16C12.9 16 12 16.89 12 18M12 18V27" stroke="#6C757D" stroke-linecap="round" stroke-linejoin="round"/>
</svg>
