<svg width="40" height="40" viewBox="0 0 40 40" fill="none" xmlns="http://www.w3.org/2000/svg">
<path d="M26.98 19.95C26.98 19.61 26.95 19.28 26.9 18.96L28.64 17.33L26.49 13.61L24.21 14.3C23.69 13.89 23.12 13.56 22.5 13.31L21.96 11H17.66L17.12 13.31C16.5 13.56 15.92 13.9 15.41 14.3L13.13 13.61L11 17.33L12.74 18.96C12.7 19.28 12.66 19.61 12.66 19.95C12.66 20.29 12.69 20.62 12.74 20.94L11 22.57L13.15 26.29L15.43 25.6C15.95 26.01 16.52 26.34 17.14 26.59L17.68 28.9H21.98L22.52 26.59C23.14 26.34 23.72 26 24.23 25.6L26.51 26.29L28.66 22.57L26.92 20.94C26.96 20.62 27 20.29 27 19.95H26.98Z" stroke="#6C757D" stroke-linecap="round" stroke-linejoin="round"/>
<path d="M19.82 22.63C21.3001 22.63 22.5 21.4301 22.5 19.95C22.5 18.4699 21.3001 17.27 19.82 17.27C18.3399 17.27 17.14 18.4699 17.14 19.95C17.14 21.4301 18.3399 22.63 19.82 22.63Z" stroke="#6C757D" stroke-linecap="round" stroke-linejoin="round"/>
</svg>
