<svg width="44" height="44" viewBox="0 0 44 44" fill="none" xmlns="http://www.w3.org/2000/svg">
<g clip-path="url(#clip0_517_467)">
<path d="M26.66 5.56C26.66 4.7 25.96 4 25.1 4C24.24 4 23.54 4.7 23.54 5.56C23.54 6.42 24.24 7.12 25.1 7.12C25.96 7.12 26.66 6.42 26.66 5.56Z" fill="#44ADAD"/>
<path d="M22.2301 13.82C22.2301 12.96 21.5301 12.26 20.6701 12.26C19.8101 12.26 19.1101 12.96 19.1101 13.82C19.1101 14.68 19.8101 15.38 20.6701 15.38C21.5301 15.38 22.2301 14.68 22.2301 13.82Z" fill="#44ADAD"/>
<path d="M21.2001 36.5099C21.2001 35.6499 20.5001 34.95 19.6401 34.95C18.7801 34.95 18.0801 35.6499 18.0801 36.5099C18.0801 37.3699 18.7801 38.07 19.6401 38.07C20.5001 38.07 21.2001 37.3699 21.2001 36.5099Z" fill="#44ADAD"/>
<path d="M22.38 41.3801C12.25 41.3801 4 33.1301 4 23.0001C4 12.8701 12.25 4.62012 22.38 4.62012V6.51012C13.28 6.50012 5.88 13.9001 5.88 23.0001C5.88 32.1001 13.28 39.4901 22.37 39.4901C31.46 39.4901 38.86 32.0901 38.86 23.0001C38.86 19.6001 37.83 16.3301 35.88 13.5501L37.42 12.4701C39.59 15.5701 40.74 19.2101 40.74 23.0001C40.74 33.1301 32.49 41.3801 22.36 41.3801H22.38Z" fill="#44ADAD"/>
<path d="M22.3799 37.45V35.56C29.3099 35.56 34.9499 29.92 34.9499 22.99C34.9499 16.06 29.3099 10.42 22.3799 10.42C15.4499 10.42 9.80993 16.06 9.80993 22.99C9.80993 25.58 10.5999 28.07 12.0799 30.19L10.5399 31.27C8.82993 28.83 7.92993 25.97 7.92993 22.99C7.92993 15.02 14.4099 8.54004 22.3799 8.54004C30.3499 8.54004 36.8299 15.02 36.8299 22.99C36.8299 30.96 30.3399 37.44 22.3699 37.44L22.3799 37.45Z" fill="#44ADAD"/>
<path d="M22.3899 33.0501C21.3699 33.0501 20.3399 32.8901 19.3399 32.5801C16.7799 31.7701 14.6899 30.0101 13.4599 27.6301C12.2199 25.2501 11.9899 22.5201 12.7999 19.9601C13.6099 17.4001 15.3699 15.3101 17.7499 14.0801L18.6199 15.7501C16.6799 16.7501 15.2499 18.4501 14.5899 20.5301C13.9299 22.6101 14.1199 24.8201 15.1199 26.7601C16.1199 28.7001 17.8199 30.1301 19.8999 30.7901C21.9799 31.4501 24.1899 31.2601 26.1299 30.2601C30.1299 28.1901 31.6999 23.2501 29.6199 19.2501C28.8499 17.7601 27.6499 16.5501 26.1499 15.7701L27.0299 14.1001C28.8699 15.0601 30.3399 16.5401 31.2899 18.3801C33.8399 23.3001 31.9099 29.3801 26.9899 31.9301C25.5399 32.6901 23.9599 33.0701 22.3699 33.0701L22.3899 33.0501Z" fill="#44ADAD"/>
</g>
<defs>
<clipPath id="clip0_517_467">
<rect width="36.76" height="37.38" fill="white" transform="translate(4 4)"/>
</clipPath>
</defs>
</svg>
