<svg width="40" height="40" viewBox="0 0 40 40" fill="none" xmlns="http://www.w3.org/2000/svg">
<g clip-path="url(#clip0_517_513)">
<path d="M20.5 8.5C17.5 10.5 14.5 11.5 11.5 10.5V21.5C11.5 25.5 17.5 28.5 20.5 31.5C23.5 28.5 29.5 25.5 29.5 21.5V10.5C26.5 11.5 23.5 10.5 20.5 8.5Z" stroke="#6C757D" stroke-linecap="round" stroke-linejoin="round"/>
<path d="M23.8199 19.03H17.7099C17.4228 19.03 17.1899 19.2628 17.1899 19.55V24.77C17.1899 25.0572 17.4228 25.29 17.7099 25.29H23.8199C24.1071 25.29 24.3399 25.0572 24.3399 24.77V19.55C24.3399 19.2628 24.1071 19.03 23.8199 19.03Z" stroke="#6C757D" stroke-linecap="round" stroke-linejoin="round"/>
<path d="M23.1998 14.8H18.3398V19.03H23.1998V14.8Z" stroke="#6C757D" stroke-linecap="round" stroke-linejoin="round"/>
</g>
<defs>
<clipPath id="clip0_517_513">
<rect width="19" height="24" fill="white" transform="translate(11 8)"/>
</clipPath>
</defs>
</svg>
