<svg width="40" height="40" viewBox="0 0 40 40" fill="none" xmlns="http://www.w3.org/2000/svg">
<path d="M20.06 28.9901C21.1094 28.9901 21.96 28.1394 21.96 27.0901C21.96 26.0407 21.1094 25.1901 20.06 25.1901C19.0107 25.1901 18.16 26.0407 18.16 27.0901C18.16 28.1394 19.0107 28.9901 20.06 28.9901Z" stroke="#6C757D" stroke-linecap="round" stroke-linejoin="round"/>
<path d="M23.35 10.8901C21.47 9.62007 18.93 9.72007 17.14 11.1201C15.82 12.1601 15.06 13.4701 15 14.9901C15 15.7001 15.71 16.2701 16.58 16.2701C17.45 16.2701 18.02 15.6501 18.21 15.0701C18.4 14.4801 18.77 14.0401 19.34 13.6801C19.99 13.2701 20.85 13.2901 21.49 13.7301C22.56 14.4701 22.64 15.9601 21.77 16.8401C20.74 17.8801 18.15 19.6801 18.15 21.3901V22.0301C18.15 22.7401 18.86 23.3101 19.73 23.3101C20.6 23.3101 21.04 22.9301 21.31 22.0301C21.59 21.1301 23.38 19.9401 24.12 19.2201C26.5 16.9201 26.21 12.8701 23.32 10.9101L23.35 10.8901Z" stroke="#6C757D" stroke-linecap="round" stroke-linejoin="round"/>
</svg>
