<svg width="607" height="1019" viewBox="0 0 607 1019" fill="none" xmlns="http://www.w3.org/2000/svg">
<g opacity="0.41">
<path d="M222.53 42.41C222.53 18.98 203.55 0 180.12 0C156.69 0 137.61 18.98 137.61 42.41C137.61 65.84 156.59 84.92 180.12 84.92C203.65 84.92 222.53 65.84 222.53 42.41Z" fill="#CECECE"/>
<path d="M101.88 267.68C101.88 244.25 82.9 225.27 59.47 225.27C36.04 225.27 16.96 244.25 16.96 267.68C16.96 291.11 35.94 310.19 59.47 310.19C82.9 310.08 101.88 291.11 101.88 267.68Z" fill="#CECECE"/>
<path d="M73.7902 886.051C73.7902 862.621 54.8102 843.641 31.3802 843.641C7.95022 843.641 -11.0298 862.621 -11.0298 886.051C-11.0298 909.481 7.95022 928.561 31.3802 928.561C54.7002 928.451 73.7902 909.481 73.7902 886.051Z" fill="#CECECE"/>
<path d="M105.91 1018.78C-170.25 1018.78 -395 794.039 -395 517.769C-395 241.499 -170.25 16.8594 105.91 16.8594V68.2794C-141.95 68.2794 -343.69 269.919 -343.69 517.879C-343.69 765.839 -142.05 967.479 105.91 967.479C353.87 967.479 555.51 765.839 555.51 517.879C555.51 425.219 527.42 336.169 474.3 260.269L516.39 230.799C575.65 315.289 606.93 414.629 606.93 517.879C606.93 794.039 382.18 1018.79 105.91 1018.79V1018.78Z" fill="#CECECE"/>
<path d="M105.91 911.71V860.29C294.72 860.29 448.44 706.68 448.44 517.76C448.44 328.84 294.83 175.23 105.91 175.23C-83.0102 175.23 -236.62 328.84 -236.62 517.76C-236.62 588.36 -215.21 656.21 -174.71 713.99L-216.8 743.46C-263.34 676.99 -287.93 598.96 -287.93 517.76C-287.93 300.54 -111.21 123.82 106.01 123.82C323.23 123.82 499.95 300.54 499.95 517.76C499.84 734.98 323.12 911.7 105.9 911.7L105.91 911.71Z" fill="#CECECE"/>
<path d="M106.23 791.92C78.3501 791.92 50.3601 787.68 23.1201 778.99C-46.6399 756.83 -103.67 708.92 -137.28 643.93C-170.99 578.94 -177.35 504.74 -155.2 434.98C-133.04 365.22 -85.1299 308.29 -20.1399 274.58L3.50011 320.17C-49.2899 347.52 -88.3099 393.85 -106.22 450.46C-124.24 507.18 -119.05 567.39 -91.6999 620.29C-64.3499 673.08 -18.0199 712.1 38.7001 730.01C95.4201 748.03 155.74 742.84 208.43 715.49C317.41 658.99 360.13 524.35 303.63 415.37C282.53 374.66 249.88 341.9 209.17 320.59L233.02 275C283.06 301.19 323.24 341.47 349.21 391.61C418.75 525.72 366.17 691.52 232.07 760.96C192.53 781.63 149.59 791.92 106.23 791.92Z" fill="#CECECE"/>
</g>
</svg>
