<svg xmlns="http://www.w3.org/2000/svg" width="17" height="16" viewBox="0 0 17 16" fill="none">
  <g clip-path="url(#clip0_517_303)">
    <path d="M13.8333 9.99992C14.0101 9.99992 14.1797 10.0702 14.3047 10.1952C14.4298 10.3202 14.5 10.4898 14.5 10.6666V13.3333C14.5 13.6869 14.3595 14.026 14.1095 14.2761C13.8594 14.5261 13.5203 14.6666 13.1667 14.6666H3.83333C3.47971 14.6666 3.14057 14.5261 2.89052 14.2761C2.64048 14.026 2.5 13.6869 2.5 13.3333V10.6666C2.5 10.4898 2.57024 10.3202 2.69526 10.1952C2.82029 10.0702 2.98986 9.99992 3.16667 9.99992C3.34348 9.99992 3.51305 10.0702 3.63807 10.1952C3.7631 10.3202 3.83333 10.4898 3.83333 10.6666V13.3333H13.1667V10.6666C13.1667 10.4898 13.2369 10.3202 13.3619 10.1952C13.487 10.0702 13.6565 9.99992 13.8333 9.99992ZM8.5 1.33325C8.67681 1.33325 8.84638 1.40349 8.9714 1.52851C9.09643 1.65354 9.16667 1.82311 9.16667 1.99992V8.82858L10.8573 7.13792C10.9188 7.07424 10.9924 7.02346 11.0737 6.98852C11.1551 6.95358 11.2425 6.93519 11.3311 6.93442C11.4196 6.93365 11.5074 6.95052 11.5893 6.98404C11.6712 7.01756 11.7457 7.06706 11.8083 7.12965C11.8709 7.19225 11.9204 7.26668 11.9539 7.34862C11.9874 7.43055 12.0043 7.51833 12.0035 7.60685C12.0027 7.69537 11.9843 7.78285 11.9494 7.86419C11.9145 7.94552 11.8637 8.01909 11.8 8.08059L9.08933 10.7913C9.01195 10.8687 8.92007 10.9301 8.81895 10.972C8.71783 11.0138 8.60945 11.0354 8.5 11.0354C8.39055 11.0354 8.28217 11.0138 8.18105 10.972C8.07993 10.9301 7.98805 10.8687 7.91067 10.7913L5.2 8.08059C5.13633 8.01909 5.08554 7.94552 5.0506 7.86419C5.01566 7.78285 4.99727 7.69537 4.9965 7.60685C4.99573 7.51833 5.0126 7.43055 5.04612 7.34862C5.07964 7.26668 5.12914 7.19225 5.19174 7.12965C5.25433 7.06706 5.32877 7.01756 5.4107 6.98404C5.49263 6.95052 5.58041 6.93365 5.66893 6.93442C5.75745 6.93519 5.84493 6.95358 5.92627 6.98852C6.00761 7.02346 6.08117 7.07424 6.14267 7.13792L7.83333 8.82858V1.99992C7.83333 1.82311 7.90357 1.65354 8.0286 1.52851C8.15362 1.40349 8.32319 1.33325 8.5 1.33325Z" fill="black"/>
  </g>
  <defs>
    <clipPath id="clip0_517_303">
      <rect width="16" height="16" fill="white" transform="translate(0.5)"/>
    </clipPath>
  </defs>
</svg>