<svg xmlns="http://www.w3.org/2000/svg" width="17" height="16" viewBox="0 0 17 16" fill="none">
  <path d="M10.4999 10.6667C10.6888 10.6667 10.8473 10.6027 10.9753 10.4747C11.1033 10.3467 11.167 10.1885 11.1666 10.0001V9.33342H11.8333C12.0221 9.33342 12.1806 9.26942 12.3086 9.14142C12.4366 9.01342 12.5004 8.85519 12.4999 8.66675C12.4999 8.47786 12.4359 8.31942 12.3079 8.19142C12.1799 8.06342 12.0217 7.99964 11.8333 8.00008H11.1666V7.33342C11.1666 7.14453 11.1026 6.98608 10.9746 6.85808C10.8466 6.73008 10.6884 6.6663 10.4999 6.66675C10.311 6.66675 10.1526 6.73075 10.0246 6.85875C9.89659 6.98675 9.83281 7.14497 9.83325 7.33342V8.00008H9.16659C8.9777 8.00008 8.81925 8.06408 8.69125 8.19208C8.56325 8.32008 8.49948 8.4783 8.49992 8.66675C8.49992 8.85564 8.56392 9.01408 8.69192 9.14208C8.81992 9.27008 8.97814 9.33386 9.16659 9.33342H9.83325V10.0001C9.83325 10.189 9.89725 10.3474 10.0253 10.4754C10.1533 10.6034 10.3115 10.6672 10.4999 10.6667ZM3.16659 13.3334C2.79992 13.3334 2.48592 13.2027 2.22459 12.9414C1.96325 12.6801 1.83281 12.3663 1.83325 12.0001V4.00008C1.83325 3.63342 1.96392 3.31942 2.22525 3.05808C2.48659 2.79675 2.80036 2.6663 3.16659 2.66675H6.61659C6.79436 2.66675 6.96392 2.70008 7.12525 2.76675C7.28659 2.83342 7.42814 2.92786 7.54992 3.05008L8.49992 4.00008H13.8333C14.1999 4.00008 14.5139 4.13075 14.7753 4.39208C15.0366 4.65342 15.167 4.96719 15.1666 5.33342V12.0001C15.1666 12.3667 15.0359 12.6807 14.7746 12.9421C14.5133 13.2034 14.1995 13.3339 13.8333 13.3334H3.16659ZM3.16659 4.00008V12.0001H13.8333V5.33342H7.94992L6.61659 4.00008H3.16659Z" fill="black"/>
</svg>