<svg xmlns="http://www.w3.org/2000/svg" width="18" height="16" viewBox="0 0 18 16" fill="none">
  <g clip-path="url(#clip0_517_322)">
    <path d="M6.42854 7.33325H4.99997V8.66658H6.42854V7.33325ZM9.28568 7.33325H7.85711V8.66658H9.28568V7.33325ZM12.1428 7.33325H10.7143V8.66658H12.1428V7.33325ZM13.5714 2.66659H12.8571V1.33325H11.4285V2.66659H5.71425V1.33325H4.28568V2.66659H3.57139C2.77854 2.66659 2.14997 3.26659 2.14997 3.99992L2.14282 13.3333C2.14282 14.0666 2.77854 14.6666 3.57139 14.6666H13.5714C14.3571 14.6666 15 14.0666 15 13.3333V3.99992C15 3.26659 14.3571 2.66659 13.5714 2.66659ZM13.5714 13.3333H3.57139V5.99992H13.5714V13.3333Z" fill="#323232"/>
  </g>
  <defs>
    <clipPath id="clip0_517_322">
      <rect width="17.1429" height="16" fill="white"/>
    </clipPath>
  </defs>
</svg>