<svg xmlns="http://www.w3.org/2000/svg" width="16" height="16" viewBox="0 0 16 16" fill="none">
  <path d="M7.35378 10.6462C7.40027 10.6926 7.43715 10.7477 7.46231 10.8084C7.48748 10.8691 7.50043 10.9342 7.50043 10.9999C7.50043 11.0656 7.48748 11.1307 7.46231 11.1914C7.43715 11.2521 7.40027 11.3072 7.35378 11.3537L5.35378 13.3537C5.30735 13.4001 5.2522 13.437 5.1915 13.4622C5.13081 13.4873 5.06574 13.5003 5.00003 13.5003C4.93433 13.5003 4.86926 13.4873 4.80856 13.4622C4.74786 13.437 4.69272 13.4001 4.64628 13.3537L2.64628 11.3537C2.59983 11.3072 2.56298 11.252 2.53784 11.1914C2.5127 11.1307 2.49976 11.0656 2.49976 10.9999C2.49976 10.9342 2.5127 10.8692 2.53784 10.8085C2.56298 10.7478 2.59983 10.6926 2.64628 10.6462C2.7401 10.5523 2.86735 10.4996 3.00003 10.4996C3.06573 10.4996 3.13079 10.5126 3.19148 10.5377C3.25218 10.5628 3.30733 10.5997 3.35378 10.6462L4.50003 11.793V2.99991C4.50003 2.8673 4.55271 2.74012 4.64648 2.64635C4.74025 2.55258 4.86743 2.49991 5.00003 2.49991C5.13264 2.49991 5.25982 2.55258 5.35359 2.64635C5.44736 2.74012 5.50003 2.8673 5.50003 2.99991V11.793L6.64628 10.6462C6.69272 10.5997 6.74786 10.5628 6.80856 10.5376C6.86926 10.5125 6.93433 10.4995 7.00003 10.4995C7.06574 10.4995 7.13081 10.5125 7.1915 10.5376C7.2522 10.5628 7.30735 10.5997 7.35378 10.6462ZM13.3538 4.64615L11.3538 2.64616C11.3073 2.59967 11.2522 2.56279 11.1915 2.53763C11.1308 2.51246 11.0657 2.49951 11 2.49951C10.9343 2.49951 10.8693 2.51246 10.8086 2.53763C10.7479 2.56279 10.6927 2.59967 10.6463 2.64616L8.64628 4.64615C8.55246 4.73998 8.49976 4.86722 8.49976 4.99991C8.49976 5.13259 8.55246 5.25984 8.64628 5.35366C8.7401 5.44748 8.86735 5.50018 9.00003 5.50018C9.13272 5.50018 9.25996 5.44748 9.35378 5.35366L10.5 4.20678V12.9999C10.5 13.1325 10.5527 13.2597 10.6465 13.3535C10.7402 13.4472 10.8674 13.4999 11 13.4999C11.1326 13.4999 11.2598 13.4472 11.3536 13.3535C11.4474 13.2597 11.5 13.1325 11.5 12.9999V4.20678L12.6463 5.35366C12.7401 5.44748 12.8674 5.50018 13 5.50018C13.1327 5.50018 13.26 5.44748 13.3538 5.35366C13.4476 5.25984 13.5003 5.13259 13.5003 4.99991C13.5003 4.86722 13.4476 4.73998 13.3538 4.64615Z" fill="#98A6AD"/>
</svg>